# xmcd
#
# Track frame offsets: 
#        150
#        17886
#        30974
#        43423
#        67712
#        79934
#        92535
#        107120
#        126547
#        143155
#        159284
#        180358
#        209757
#        238086
#        252928
#        287022
#        303491
#        324777
#        340826
#
# Disc length: 4731 seconds
#
# Revision: 0
# Processed by: cddbd v1.5.2PL0 Copyright (c) Steve Scherf et al.
# Submitted via: ExactAudioCopy v0.99pb5
#
DISCID=06127913
DTITLE=David Bowie  - Conversation Piece (Disc04)
DYEAR=1900
DGENRE=
TTITLE0=Moonage Daydream
TTITLE1=Hang Onto Yourself
TTITLE2=The Supermen
TTITLE3=The Bewlay Brothers
TTITLE4=Bombers
TTITLE5=John, I'm Only Dancing
TTITLE6=Velvet Goldmine
TTITLE7=Sweet Head
TTITLE8=Ziggy Stardust
TTITLE9=Lady Stardust
TTITLE10=Who Can I Be Now?
TTITLE11=It's Gonna Be Me
TTITLE12=Word on a Wing
TTITLE13=Some Are
TTITLE14=Stay
TTITLE15=All Saints
TTITLE16=Sound and Vision
TTITLE17=Abdulmajid
TTITLE18=Joe the Lion
EXTD=
EXTT0=
EXTT1=
EXTT2=
EXTT3=
EXTT4=
EXTT5=
EXTT6=
EXTT7=
EXTT8=
EXTT9=
EXTT10=
EXTT11=
EXTT12=
EXTT13=
EXTT14=
EXTT15=
EXTT16=
EXTT17=
EXTT18=
PLAYORDER=
